PathFileType	4	(X/Y/Z)	F:\MotionCapture\20160217\3\Generated_files\EMG_Fprce_test07-Dynamic.trc
DataRate	CameraRate	NumFrames	NumMarkers	Units	OrigDataRate	OrigDataStartFrame	OrigNumFrames
120.00	120.00	       8	39	mm	120.00	94	       751
Frame#	Time	Top.Head			Front.Head			Rear.Head			R.Shoulder			R.Offset			R.Elbow			R.Wrist			L.Shoulder			L.Elbow			L.Wrist			R.ASIS			L.ASIS			V.Sacral			R.Thigh			R.Knee			R.Shank			R.Ankle			R.Heel			R.Toe			L.Thigh			L.Knee			L.Shank			L.Ankle			L.Heel			L.Toe			R1			R2			R3			R4			R5			R6			R7			L1			L2			L3			L4			L5			L6			L7			V_Mid_ASIS			V_Pelvis_Origin			V_R.Hip_JC			V_L.Hip_JC			V_R.Knee_JC			V_L.Knee_JC			V_R.Ankle_JC			V_L.Ankle_JC			V_Mid_Hip			V_Mid_Shoulder			V_R.Hand			V_L.Hand			V_R.Toe_Offset_Static			V_L.Toe_Offset_Static			V_R.Toe_Offset			V_L.Toe_Offset			
		X1	Y1	Z1	X2	Y2	Z2	X3	Y3	Z3	X4	Y4	Z4	X5	Y5	Z5	X6	Y6	Z6	X7	Y7	Z7	X8	Y8	Z8	X9	Y9	Z9	X10	Y10	Z10	X11	Y11	Z11	X12	Y12	Z12	X13	Y13	Z13	X14	Y14	Z14	X15	Y15	Z15	X16	Y16	Z16	X17	Y17	Z17	X18	Y18	Z18	X19	Y19	Z19	X20	Y20	Z20	X21	Y21	Z21	X22	Y22	Z22	X23	Y23	Z23	X24	Y24	Z24	X25	Y25	Z25	X26	Y26	Z26	X27	Y27	Z27	X28	Y28	Z28	X29	Y29	Z29	X30	Y30	Z30	X31	Y31	Z31	X32	Y32	Z32	X33	Y33	Z33	X34	Y34	Z34	X35	Y35	Z35	X36	Y36	Z36	X37	Y37	Z37	X38	Y38	Z38	X39	Y39	Z39	

94	0.775	2725.94336	120.31969	1742.10010	2602.35938	116.08010	1676.96875	2823.22827	117.62585	1657.49927	2731.20044	320.06305	1428.85925	2855.16528	51.93420	1277.27625	2731.69336	406.02631	1096.77246	2607.53174	379.30743	869.74902	2712.14893	-91.97244	1430.78882	2706.33179	-168.27911	1100.70093	2607.18555	-145.67570	865.21326	2639.40527	271.84604	957.67279	2626.29663	-18.53135	955.28955	2856.71338	117.05649	949.99518	2619.58081	244.26930	579.05463	2688.48120	288.72607	475.14166	2718.86426	228.55138	237.43146	2790.03076	306.54935	80.89171	2856.95361	243.26500	48.53537	2648.96021	299.23679	55.46035	2588.23315	25.76929	632.42407	2677.61084	-32.42659	471.92633	2680.09082	40.02381	328.89682	2770.24658	-32.99588	69.09874	2837.48828	20.79199	50.40984	2634.03564	-29.40768	53.62762	2600.89160	282.25827	53.02933	2640.06738	262.67703	59.25236	2736.27051	220.92059	63.27699	2809.38135	214.77698	46.41693	2830.22021	288.96661	52.39090	2754.85229	319.43365	43.24814	2689.50586	338.14005	46.42592	2588.90820	-3.42299	49.33159	2622.10620	8.32640	54.92479	2715.27686	52.75775	56.37447	2799.34082	52.52830	49.36274	2810.42651	-19.83930	51.65010	2735.51758	-48.86949	43.26223	2673.97485	-58.96771	49.11956																																																	3259.43774	215.03227	766.47852	4446.12061	-572.38165	686.07715	
95	0.783	2724.77173	119.73155	1741.88586	2601.62524	116.22568	1676.95618	2822.28442	117.40234	1657.44629	2729.54028	319.26935	1428.78857	2854.45898	52.16758	1277.35547	2731.03564	405.92764	1096.53284	2606.35986	380.12216	870.60077	2712.14771	-91.97237	1430.88074	2706.45947	-168.29219	1100.67188	2608.09546	-147.09924	864.95569	2639.31909	271.47479	957.83868	2627.39648	-18.48107	955.29974	2856.02124	116.31962	950.07721	2619.45459	244.10236	578.96179	2688.36230	288.64178	475.14740	2719.26929	228.76314	237.48520	2790.18604	306.55643	80.91850	2857.47778	241.02065	49.02809	2649.32104	299.16461	55.77223	2587.04492	25.09351	632.49329	2676.01050	-32.67126	471.77768	2675.35962	39.50916	329.19629	2770.20850	-32.89994	69.12645	2837.50171	20.84112	50.38813	2634.06641	-29.18012	53.70932	2600.68140	283.02707	52.95050	2640.29199	262.72586	59.50199	2736.48560	220.88812	63.53090	2809.54590	214.63802	46.45691	2830.37280	289.06906	52.30025	2753.16528	313.28369	36.40436	2689.83203	338.24515	46.41848	2589.09888	-3.45274	49.63229	2622.12769	8.34505	54.99736	2715.50806	53.03344	56.62284	2799.37671	52.55088	49.28657	2810.42407	-19.70383	51.60003	2735.21094	-49.40052	43.36599	2673.92432	-58.80324	49.25664																																																	3258.61694	215.05322	766.68219	
96	0.792	2723.71191	119.67328	1741.76343	2600.42847	116.26613	1676.79419	2821.17236	116.94399	1657.41821	2728.25879	318.92435	1428.47595	2853.68359	52.14511	1277.27869	2730.32861	405.83667	1096.39771	2604.90283	379.86209	870.57257	2711.33569	-92.24368	1430.75977	2706.42578	-168.14598	1100.54211	2608.84009	-148.41957	864.46466	2637.39624	271.26611	957.91022	2626.49780	-18.75059	954.94849	2855.23535	115.67467	950.13660	2619.34082	244.12541	578.79608	2688.35889	288.61670	475.10818	2718.92139	228.92206	237.47932	2790.30005	306.54752	80.89481	2857.20508	243.22726	48.38735	2649.50171	299.13101	55.94046	2585.84058	25.88756	632.53564	2674.23926	-32.62250	471.32303	2672.70557	39.16848	328.97302	2770.19946	-32.91743	69.19726	2837.49756	20.82663	50.39260	2634.21362	-28.91981	53.85319	2600.84253	283.24551	53.19533	2640.52124	263.00562	59.83326	2736.66650	220.95401	63.55270	2809.58203	214.65433	46.43382	2830.53247	289.16190	52.27597	2753.13574	313.16824	36.29532	2690.02930	338.29797	46.45908	2589.19604	-3.29964	49.79557	2622.12451	8.44958	55.06017	2715.46167	53.10446	56.60197	2799.36353	52.56033	49.27935	2810.43164	-19.77753	51.67297	2735.46265	-48.86715	43.40565	2674.01685	-58.52716	49.47791																																																	3259.29272	214.79398	766.71289	
97	0.800	2722.98462	120.33453	1741.54065	2599.37817	116.53848	1676.62524	2820.22778	116.95289	1657.51257	2727.11548	318.77267	1428.53455	2852.67456	51.83567	1277.27661	2729.69189	405.65585	1096.25476	2603.11572	379.48502	870.55182	2710.34766	-92.73035	1430.64856	2706.43457	-168.25800	1100.50378	2609.82886	-149.86029	863.35547	2636.99170	271.22421	957.74426	2625.89233	-18.80877	954.83673	2854.60181	115.03148	949.96021	2619.00732	243.95233	578.61780	2688.60669	288.73431	475.24042	2718.97607	228.93442	237.33911	2790.34741	306.65439	80.79240	2857.63818	241.03386	48.99245	2649.67773	299.06390	56.05595	2583.93433	26.38731	632.07751	2672.20557	-32.30896	471.02512	2673.33179	39.54153	328.03751	2770.05981	-33.80368	69.97814	2837.48779	20.89151	50.46128	2634.24097	-28.85608	53.93512	2600.92017	282.68951	53.46149	2640.44238	262.81433	60.06616	2736.62793	221.01344	63.66042	2809.65845	214.81390	46.36403	2830.70508	289.28610	52.20864	2753.19360	313.39694	36.50731	2690.12061	338.35818	46.46720	2589.25806	-3.27233	49.89164	2622.11377	8.47674	55.03661	2715.23242	53.10934	56.42385	2799.38330	52.55980	49.28719	2810.39258	-19.71519	51.67714	2735.48535	-48.85156	43.50157	2674.06421	-58.35250	49.55085																																																	3259.08472	214.61308	766.80890	
98	0.808	2721.85791	120.07584	1741.56348	2597.67334	115.50591	1676.58704	2818.85986	116.35129	1657.29309	2726.01611	318.61069	1428.58569	2851.73315	51.72581	1277.18933	2728.75586	405.54965	1096.29590	2601.55566	378.94601	870.94055	2709.29370	-93.10816	1430.71045	2706.40552	-168.04768	1100.80359	2611.34961	-151.71635	863.19250	2635.66968	271.20377	958.15375	2625.46802	-18.92790	954.62524	2853.59521	114.52588	949.89758	2618.78174	243.93785	578.52417	2688.35913	288.56299	475.25571	2719.06201	228.98296	237.53502	2791.19751	307.58493	81.26611	2857.65234	241.05418	48.97626	2649.75610	299.03790	56.11055	2582.54102	26.34158	631.93085	2670.15503	-32.41948	470.46384	2677.47729	40.83149	326.70764	2769.92456	-33.72235	69.95457	2837.46460	20.93094	50.47418	2634.19971	-28.79075	53.92067	2601.06494	282.73721	53.61525	2640.54199	262.93329	60.22739	2736.79492	221.03400	63.64232	2809.73242	214.84181	46.45046	2830.44067	288.47095	51.75907	2753.18091	313.34143	36.46613	2690.12109	338.32413	46.54596	2589.42065	-2.89318	50.12056	2622.11548	8.48892	55.00473	2715.50366	53.23678	56.63768	2799.35400	52.61222	49.30080	2810.39258	-19.67799	51.72857	2735.19727	-49.37246	43.55801	2673.87134	-58.20153	49.58423	
99	0.817	2720.71851	119.97367	1741.51575	2596.36377	115.86018	1676.01416	2817.69922	116.01067	1657.38599	2724.79346	318.20477	1428.50964	2850.44312	51.33990	1277.04272	2727.87622	405.45767	1096.26160	2600.08838	378.57803	871.05298	2708.18018	-93.48235	1430.44263	2706.34204	-167.93277	1100.55151	2612.43042	-152.90103	862.48364	2635.62500	271.01425	957.88245	2624.86914	-19.00662	954.53375	2852.85962	113.76892	949.86700	2618.53271	243.85110	578.24005	2688.07251	288.46497	475.08484	2719.18579	228.63345	237.35643	2790.44653	306.63495	80.78334	2857.71045	241.10274	48.93459	2649.67480	299.06708	56.03534	2581.47046	25.88597	631.30603	2668.74341	-32.66846	470.39774	2675.80908	40.54405	326.22067	2769.72510	-33.71135	69.78069	2837.42334	20.91877	50.49707	2634.11743	-28.71258	53.90119	2601.13940	282.50418	53.75055	2640.55762	262.59567	60.21466	2736.83130	221.05063	63.55893	2809.73120	214.90408	46.30088	2830.47485	288.55942	51.73434	2753.25146	313.66110	36.68971	2690.10596	338.34711	46.43275	2589.16553	-3.17008	49.83872	2622.11035	8.58262	55.00690	2715.27710	53.26323	56.31791	2799.37500	52.59684	49.29163	2810.34595	-19.60948	51.74088	2735.17798	-49.32954	43.66075	2673.82886	-58.01546	49.56810	
100	0.825	2719.21973	119.79089	1741.33130	2595.29932	116.40106	1675.98987	2816.22192	115.91074	1657.14856	2723.95776	318.20920	1428.48962	2849.44995	51.14357	1277.08850	2726.80542	405.55600	1096.08398	2598.07349	377.93814	870.82355	2706.97803	-93.93185	1430.14441	2706.33496	-167.98018	1100.40540	2614.34644	-154.64627	861.86487	2634.67749	270.36768	957.88074	2622.71631	-19.65279	954.52905	2852.21558	113.14077	949.95239	2618.05835	243.68231	578.00067	2687.65210	288.37961	474.90494	2719.02002	228.55174	237.32248	2790.36694	306.64734	80.75330	2857.67993	241.13675	48.91199	2649.68750	299.00620	56.00034	2580.11328	25.06595	630.91058	2667.35229	-33.07787	469.88724	2674.92993	40.45280	325.95566	2769.67383	-33.72686	69.85829	2837.39111	20.98368	50.50775	2633.98047	-28.87713	53.84876	2600.99463	282.42911	53.32164	2640.49146	262.60144	59.80548	2736.85205	220.98851	63.58138	2809.77002	214.98634	46.37769	2830.48267	288.58548	51.71985	2750.86987	315.84982	37.90648	2690.12036	338.38531	46.45972	2589.09937	-3.08954	49.63401	2622.08716	8.65233	54.99137	2715.13770	53.22966	56.04855	2799.35425	52.62407	49.22443	2810.33154	-19.58986	51.75226	2735.16577	-49.32833	43.61558	2673.54858	-58.21101	49.44087																																																	2676.17285	197.37556	133.65852	3260.16333	210.70308	766.63910	
101	0.833	2717.48315	119.21984	1741.33582	2593.78564	115.58360	1675.71387	2814.77734	115.34399	1657.04553	2721.90430	317.14737	1428.39246	2847.99805	50.85512	1276.99280	2725.69214	405.05499	1096.04858	2596.65845	377.63083	871.04681	2705.84692	-94.12346	1430.21509	2706.27246	-168.10208	1100.23657	2615.41235	-156.02425	860.95660	2635.10620	270.32535	957.77332	2624.44019	-19.16427	953.49060	2850.93018	112.29845	949.75818	2617.23462	243.00943	577.74622	2687.28003	288.15121	474.72571	2718.86426	228.42181	237.24422	2790.27734	306.65872	80.72533	2857.65161	241.14374	48.94486	2649.63257	299.00092	55.92414	2577.71729	23.96284	630.65051	2665.90894	-33.10699	469.17526	2673.75806	40.31903	325.69952	2769.62622	-33.67009	69.90521	2837.35132	21.00114	50.56033	2634.10156	-28.63553	53.82172	2600.97607	282.19278	53.21108	2640.47510	262.48062	59.64110	2736.84497	220.96223	63.45269	2809.83960	215.09927	46.44873	2830.44141	288.61475	51.71289	2750.91553	315.88452	37.94005	2690.12012	338.40042	46.50323	2589.01489	-3.04973	49.52860	2622.06812	8.66687	54.94356	2715.24146	53.40896	56.13129	2799.29932	52.65793	49.22337	2811.17920	-19.66382	51.90360	2735.11133	-49.31006	43.67739	2673.70605	-58.05029	49.62214																																																	2675.07104	197.61832	133.62094	3253.81104	210.95482	767.48138	
